# xmcd CD database file
#
# Track frame offsets:
#	150
#	19432
#	52571
#	66644
#	92898
#	117112
#	151681
#	162520
#	179678
#	207007
#	225397
#	260113
#	272287
#	298557
#
# Disc length: 4156 seconds
#
# Revision: 2
# Processed by: cddbd v1.5.2PL0 Copyright (c) Steve Scherf et al.
# Submitted via: CDex 1.51
#
DISCID=c0103a0e
DTITLE=Luigi Boccherini - Six sonates pour clavecin avec violon et violoncelle  (Barros Classical Consort)
DYEAR=1995
DGENRE=Classique
TTITLE0=Sonate IV - I. Moderato e arioso    [Max Barros, fortepiano]
TTITLE1=Sonate IV - II. Allegro molto    [Stephanie Chase, violon]
TTITLE2=Sonate IV - III. Minuetto militare    [Christine Gummere, violoncelle]
TTITLE3=Sonate II - I. Allegro molto
TTITLE4=Sonate II - II. Minuetto affettuoso
TTITLE5=Sonate III - I. Allegro
TTITLE6=Sonate III - II. Presto
TTITLE7=Sonate V - I. Andante
TTITLE8=Sonate V - II. Presto
TTITLE9=Sonate I - I. Poco andante
TTITLE10=Sonate I - II. Allegro molto
TTITLE11=Sonate I - III. Tempo di minuetto
TTITLE12=Sonate VI - I. Presto
TTITLE13=Sonate VI - II. Allegro moderato
EXTD=YEAR: 1995
EXTT0=
EXTT1=
EXTT2=
EXTT3=
EXTT4=
EXTT5=
EXTT6=
EXTT7=
EXTT8=
EXTT9=
EXTT10=
EXTT11=
EXTT12=
EXTT13=
PLAYORDER=
